<svg width="72" height="54" viewBox="0 0 72 54" fill="none" xmlns="http://www.w3.org/2000/svg">
<rect width="72" height="54" fill="#566B32"/>
<path d="M15.152 36.256C15.088 36.256 15.056 36.224 15.056 36.16C15.056 35.712 15.08 35.224 15.128 34.696C13.208 34.392 11.656 33.624 10.472 32.392C9.864 31.736 9.4 30.992 9.08 30.16C8.76 29.328 8.6 28.4 8.6 27.376C8.6 25.68 9.064 24.072 9.992 22.552C10.456 21.784 10.992 21.112 11.6 20.536C12.224 19.96 12.912 19.472 13.664 19.072C15.12 18.32 16.792 17.944 18.68 17.944C19.096 17.944 19.52 17.968 19.952 18.016C20.384 18.048 20.824 18.104 21.272 18.184C22.088 16.92 22.992 15.752 23.984 14.68L24.08 14.632C24.096 14.632 24.104 14.648 24.104 14.68C24.104 14.776 24.056 14.888 23.96 15.016C23.448 15.624 22.992 16.2 22.592 16.744C22.192 17.288 21.848 17.792 21.56 18.256C22.344 18.432 23.152 18.672 23.984 18.976C24.08 18.816 24.184 18.664 24.296 18.52C24.408 18.376 24.52 18.232 24.632 18.088C24.728 17.96 24.808 17.896 24.872 17.896C24.952 17.896 24.992 17.936 24.992 18.016C24.976 18.032 24.968 18.056 24.968 18.088C24.568 18.68 24.248 19.408 24.008 20.272C23.768 21.12 23.592 22.088 23.48 23.176C23.464 23.336 23.352 23.512 23.144 23.704C22.936 23.896 22.744 23.992 22.568 23.992C22.472 23.992 22.424 23.784 22.424 23.368C22.424 22.44 22.704 21.392 23.264 20.224C23.136 20.048 22.888 19.864 22.52 19.672C22.152 19.464 21.664 19.256 21.056 19.048C20.064 20.712 19.168 22.544 18.368 24.544C18.496 24.736 18.656 24.832 18.848 24.832C18.96 24.832 18.664 25.12 17.96 25.696C17.592 26.688 17.256 27.712 16.952 28.768C16.92 29.216 16.84 29.728 16.712 30.304C16.6 30.88 16.48 31.512 16.352 32.2L16.208 32.92C16.128 33.256 16.016 33.456 15.872 33.52C15.856 33.648 15.832 33.784 15.8 33.928C15.784 34.072 15.768 34.216 15.752 34.36C16.024 34.424 16.296 34.464 16.568 34.48C16.856 34.496 17.144 34.504 17.432 34.504C19.912 34.504 21.696 33.352 22.784 31.048C23.072 30.424 23.216 29.888 23.216 29.44C23.216 29.152 23.136 28.976 22.976 28.912C22.944 28.912 22.928 28.904 22.928 28.888C22.928 28.744 23.152 28.672 23.6 28.672C24.08 28.672 24.32 28.992 24.32 29.632C24.32 31.216 23.472 32.512 21.776 33.52C20.32 34.416 18.76 34.864 17.096 34.864C16.616 34.864 16.144 34.84 15.68 34.792C15.664 34.904 15.648 35.048 15.632 35.224C15.616 35.416 15.592 35.624 15.56 35.848C15.512 36.12 15.376 36.256 15.152 36.256ZM15.2 34.216C15.296 33.368 15.464 32.456 15.704 31.48C15.944 30.488 16.24 29.44 16.592 28.336V27.784C16.592 26.728 16.448 25.768 16.16 24.904C15.504 23.192 14.488 22.336 13.112 22.336C13.032 22.336 12.952 22.344 12.872 22.36C12.792 22.36 12.712 22.368 12.632 22.384C13.24 22.384 13.544 22.68 13.544 23.272C13.544 23.528 13.472 23.728 13.328 23.872C13.088 23.312 12.736 23.032 12.272 23.032C12.112 23.032 11.928 23.072 11.72 23.152C11.704 23.12 11.696 23.056 11.696 22.96C11.696 22.304 12.176 21.976 13.136 21.976C13.872 21.976 14.568 22.248 15.224 22.792C15.816 23.288 16.24 23.888 16.496 24.592C16.816 25.36 16.984 26.224 17 27.184C17.08 26.912 17.168 26.64 17.264 26.368C17.376 26.096 17.488 25.832 17.6 25.576C17.456 25.384 17.384 25.16 17.384 24.904C17.384 24.76 17.472 24.56 17.648 24.304C17.824 24.048 17.984 23.912 18.128 23.896L18.176 24.112C18.592 23.152 18.992 22.264 19.376 21.448C19.76 20.616 20.168 19.888 20.6 19.264L20.816 18.952C19.76 18.568 18.752 18.376 17.792 18.376C15.472 18.376 13.584 19.2 12.128 20.848C10.656 22.432 9.92 24.4 9.92 26.752C9.92 28.528 10.4 30.104 11.36 31.48C12.336 32.808 13.616 33.72 15.2 34.216ZM26.1905 34.144C25.5345 34.144 25.2065 33.824 25.2065 33.184C25.2065 32.576 25.6465 31.728 26.5265 30.64C27.3265 29.632 28.0225 28.936 28.6145 28.552C29.2065 28.168 29.7585 27.976 30.2705 27.976C30.8785 27.976 31.1825 28.152 31.1825 28.504C31.1825 28.584 31.1025 28.704 30.9425 28.864C30.7825 29.008 30.6945 29.096 30.6785 29.128C30.3745 29.624 30.2225 30.632 30.2225 32.152C30.2225 33.032 30.4145 33.472 30.7985 33.472C31.1505 33.472 31.5585 33.264 32.0225 32.848C32.4865 32.432 32.9185 31.968 33.3185 31.456C33.3665 31.408 33.4065 31.384 33.4385 31.384C33.5025 31.384 33.5345 31.424 33.5345 31.504C33.5345 31.536 33.5185 31.592 33.4865 31.672C33.4705 31.752 33.4465 31.816 33.4145 31.864C32.7585 32.744 32.1905 33.336 31.7105 33.64C31.2465 33.944 30.7905 34.096 30.3425 34.096C29.6225 34.096 29.2705 33.328 29.2865 31.792C28.9825 32.336 28.5425 32.848 27.9665 33.328C27.2945 33.872 26.7025 34.144 26.1905 34.144ZM26.8385 33.496C27.1105 33.496 27.3985 33.384 27.7025 33.16C28.6465 32.408 29.2625 31 29.5505 28.936C29.5025 28.936 29.4705 28.928 29.4545 28.912C29.1345 28.912 28.7105 29.104 28.1825 29.488C27.7345 29.792 27.3745 30.12 27.1025 30.472C26.4625 31.304 26.1425 32.024 26.1425 32.632C26.1425 33.208 26.3745 33.496 26.8385 33.496ZM35.7333 34.288C34.1173 34.288 33.3093 33.096 33.3093 30.712C33.3093 28.376 34.0773 25.84 35.6133 23.104C37.1173 20.384 38.5413 19.024 39.8853 19.024C40.3653 19.024 40.6853 19.352 40.8453 20.008V20.32C40.8453 21.472 39.9573 23.416 38.1813 26.152C37.4293 27.336 36.7173 28.368 36.0453 29.248C35.3893 30.128 34.7733 30.872 34.1973 31.48C34.3893 32.92 35.0533 33.64 36.1893 33.64C36.8773 33.64 37.4613 33.448 37.9413 33.064C38.4213 32.664 38.9333 32.128 39.4773 31.456C39.5733 31.36 39.6373 31.312 39.6693 31.312C39.7173 31.312 39.7413 31.352 39.7413 31.432C39.7413 31.544 39.6853 31.688 39.5733 31.864C38.8853 32.744 38.2373 33.368 37.6293 33.736C37.0213 34.104 36.3893 34.288 35.7333 34.288ZM34.2213 30.88C35.0853 30.032 36.2133 28.352 37.6053 25.84C39.0773 23.168 39.8133 21.328 39.8133 20.32C39.8133 19.872 39.6853 19.648 39.4293 19.648C38.4373 19.648 37.3093 21.072 36.0453 23.92C35.4533 25.328 34.9973 26.608 34.6773 27.76C34.3733 28.912 34.2213 29.952 34.2213 30.88ZM43.0734 34.36C42.9294 34.36 42.8174 34.24 42.7374 34V33.544C42.7374 31.56 42.4814 30.568 41.9694 30.568C41.6334 30.568 41.1214 31.112 40.4334 32.2C40.2414 32.488 40.0494 32.776 39.8574 33.064C39.6814 33.352 39.5054 33.64 39.3294 33.928C39.2334 33.96 39.1614 33.976 39.1134 33.976C38.9534 33.976 38.8734 33.856 38.8734 33.616V33.544L39.1614 32.584C39.4974 31.576 39.7454 30.776 39.9054 30.184C40.0654 29.576 40.1454 29.176 40.1454 28.984C40.1454 28.92 40.1374 28.88 40.1214 28.864C40.4414 28.576 40.7454 28.432 41.0334 28.432C41.1774 28.432 41.2334 28.472 41.2014 28.552L40.7694 30.976C40.9294 30.752 41.2574 30.472 41.7534 30.136C42.0094 29.96 42.2254 29.832 42.4014 29.752C42.5934 29.672 42.7454 29.632 42.8574 29.632C43.3534 29.632 43.6334 30.632 43.6974 32.632C43.8734 32.312 44.1054 31.912 44.3934 31.432C44.6974 30.952 45.0494 30.4 45.4494 29.776C45.6734 29.472 45.9134 29.32 46.1694 29.32C46.4094 29.32 46.5534 29.472 46.6014 29.776C46.6494 30.4 46.6974 30.984 46.7454 31.528C46.7934 32.056 46.8974 32.48 47.0574 32.8C47.2174 33.12 47.4894 33.288 47.8734 33.304C48.3534 33.304 48.8254 33.128 49.2894 32.776C49.7694 32.408 50.2014 31.968 50.5854 31.456C50.6654 31.328 50.7454 31.264 50.8254 31.264C50.8734 31.264 50.8974 31.328 50.8974 31.456C50.8974 31.488 50.8654 31.56 50.8014 31.672C50.7374 31.768 50.6894 31.832 50.6574 31.864C50.3854 32.264 50.0654 32.656 49.6974 33.04C49.3454 33.408 48.9694 33.712 48.5694 33.952C48.1694 34.176 47.7694 34.288 47.3694 34.288C46.7774 34.288 46.3454 33.968 46.0734 33.328C45.8014 32.688 45.6334 31.784 45.5694 30.616C45.2334 30.92 44.8734 31.464 44.4894 32.248C44.2494 32.696 44.0494 33.072 43.8894 33.376C43.7294 33.664 43.6094 33.872 43.5294 34C43.3694 34.24 43.2174 34.36 43.0734 34.36ZM52.9833 34.288C51.3673 34.288 50.5593 33.096 50.5593 30.712C50.5593 28.376 51.3273 25.84 52.8633 23.104C54.3673 20.384 55.7913 19.024 57.1353 19.024C57.6153 19.024 57.9353 19.352 58.0953 20.008V20.32C58.0953 21.472 57.2073 23.416 55.4313 26.152C54.6793 27.336 53.9673 28.368 53.2953 29.248C52.6393 30.128 52.0233 30.872 51.4473 31.48C51.6393 32.92 52.3033 33.64 53.4393 33.64C54.1273 33.64 54.7113 33.448 55.1913 33.064C55.6713 32.664 56.1833 32.128 56.7273 31.456C56.8233 31.36 56.8873 31.312 56.9193 31.312C56.9673 31.312 56.9913 31.352 56.9913 31.432C56.9913 31.544 56.9353 31.688 56.8233 31.864C56.1353 32.744 55.4873 33.368 54.8793 33.736C54.2713 34.104 53.6393 34.288 52.9833 34.288ZM51.4713 30.88C52.3353 30.032 53.4633 28.352 54.8553 25.84C56.3273 23.168 57.0633 21.328 57.0633 20.32C57.0633 19.872 56.9353 19.648 56.6793 19.648C55.6873 19.648 54.5593 21.072 53.2953 23.92C52.7033 25.328 52.2473 26.608 51.9273 27.76C51.6233 28.912 51.4713 29.952 51.4713 30.88ZM51.5394 44.92C50.4994 44.92 49.6914 44.656 49.1154 44.128C48.4754 43.584 48.1554 42.816 48.1554 41.824C48.1554 38.624 52.4274 35.944 60.9714 33.784C61.0514 33 61.1074 32.28 61.1394 31.624C61.1874 30.952 61.2194 30.352 61.2354 29.824C61.1234 30.16 60.9954 30.48 60.8514 30.784C60.7074 31.088 60.5554 31.376 60.3954 31.648C60.1714 32.096 59.7874 32.56 59.2434 33.04C58.6034 33.552 58.0834 33.808 57.6834 33.808C57.3794 33.808 57.1154 33.64 56.8914 33.304C56.7154 33 56.6274 32.68 56.6274 32.344C56.6274 31.8 56.7634 31.184 57.0354 30.496C57.3234 29.632 57.6914 29.2 58.1394 29.2C58.2994 29.2 58.3874 29.304 58.4034 29.512C57.7794 30.52 57.4674 31.448 57.4674 32.296C57.4674 32.776 57.6594 33.016 58.0434 33.016C58.7314 33.016 59.4594 32.36 60.2274 31.048C60.9314 29.88 61.2834 28.896 61.2834 28.096C61.2834 27.856 61.4754 27.736 61.8594 27.736C62.1634 27.736 62.3154 27.888 62.3154 28.192C62.3154 28.768 62.2834 29.512 62.2194 30.424C62.1714 31.32 62.0914 32.384 61.9794 33.616C62.1554 33.568 62.3954 33.52 62.6994 33.472C63.0194 33.424 63.2914 33.4 63.5154 33.4C64.1234 33.4 64.4274 33.488 64.4274 33.664C64.4274 33.744 64.3714 33.784 64.2594 33.784C64.2114 33.784 64.1074 33.784 63.9474 33.784C63.7874 33.768 63.6194 33.76 63.4434 33.76C63.2834 33.76 63.0354 33.792 62.6994 33.856C62.3794 33.92 62.1074 33.984 61.8834 34.048C61.2754 38.656 59.2674 41.888 55.8594 43.744C55.1394 44.128 54.4274 44.416 53.7234 44.608C53.0034 44.816 52.2754 44.92 51.5394 44.92ZM52.2834 44.224C53.7074 44.224 54.8594 43.968 55.7394 43.456C58.6514 41.808 60.3714 38.728 60.8994 34.216C52.8354 36.344 48.8034 38.8 48.8034 41.584C48.8034 43.344 49.9634 44.224 52.2834 44.224Z" fill="#FAFCF6"/>
</svg>
